# File created by Blade
# Date/Time:  Thu Sep 25 19:36:54 2014
# Frame Rate: 120.000 fps
#------------------------------------------------------
:FULLY-SPECIFIED
:DEGREES
632
root 0.687574 34.039619 -1.216744 100.119771 3.461883 -31.252271
Spine -36.010495 -3.177673 14.472042
Head -50.998786 30.594927 18.033891
LeftShoulder -16.277612 2.467830 46.306828
LeftArm 48.536150 -48.008580 -17.591173
LeftForeArm 16.128538 0.000000 16.806724
LeftHand -28.659188 -0.000000 0.297520
LeftHandThumb1 -26.253704 0.000000 33.147579
RightShoulder -27.267241 1.848927 -31.183619
RightArm -30.825267 -21.739894 52.058433
RightForeArm -44.374737 -0.000000 11.631169
RightHand -1.771206 -0.000000 23.088434
RightHandThumb1 -24.326973 -0.000000 -32.862282
LeftUpLeg -98.199968 25.642593 -1.399569
LeftLeg -10.231587 -0.000000 0.000000
LeftFoot -0.314760 11.072904 -7.207084
LeftToeBase 5.311672 -0.000000 -0.000000
RightUpLeg 18.594775 19.401846 -30.315645
RightLeg 99.949892 -0.000000 -0.000000
RightFoot 31.455973 -16.666301 20.123146
RightToeBase 8.609942 -0.000000 -0.000000
633
root 0.689261 34.034722 -1.227789 100.282168 3.475813 -31.297693
Spine -36.090613 -3.163839 14.520294
Head -51.012327 30.695287 18.049092
LeftShoulder -16.330334 2.512672 46.286475
LeftArm 48.763400 -48.189310 -17.725027
LeftForeArm 16.183111 -0.000000 16.712802
LeftHand -28.448869 0.000000 0.214785
LeftHandThumb1 -26.253704 0.000000 33.147579
RightShoulder -27.273862 1.774953 -31.187601
RightArm -30.710984 -21.730456 51.978225
RightForeArm -44.512857 -0.000000 11.688586
RightHand -1.818078 -0.000000 23.183016
RightHandThumb1 -24.326973 -0.000000 -32.862282
LeftUpLeg -98.300422 25.705087 -1.343977
LeftLeg -10.332963 -0.000000 0.000000
LeftFoot -0.287536 11.193058 -7.153037
LeftToeBase 5.267095 -0.000000 -0.000000
RightUpLeg 18.624219 19.450917 -30.267823
RightLeg 99.859436 -0.000000 -0.000000
RightFoot 31.303439 -16.846317 20.158033
RightToeBase 8.766838 -0.000000 -0.000000
634
root 0.689211 34.030551 -1.238986 100.443711 3.480943 -31.329776
Spine -36.185977 -3.168468 14.536307
Head -50.999051 30.761633 18.167975
LeftShoulder -16.289730 2.360562 46.368906
LeftArm 48.693036 -48.164155 -17.663990
LeftForeArm 16.149409 -0.000000 16.760501
LeftHand -28.836371 -0.000000 0.041832
LeftHandThumb1 -26.253704 0.000000 33.147579
RightShoulder -27.211293 1.818180 -31.219167
RightArm -30.799976 -21.833376 52.007184
RightForeArm -44.372991 -0.000000 11.654985
RightHand -1.688988 -0.000000 22.832515
RightHandThumb1 -24.326973 -0.000000 -32.862282
LeftUpLeg -98.391568 25.769445 -1.271090
LeftLeg -10.423450 -0.000000 0.000000
LeftFoot -0.254034 11.296015 -7.091039
LeftToeBase 5.281031 -0.000000 -0.000000
RightUpLeg 18.662660 19.466995 -30.218905
RightLeg 99.778055 -0.000000 -0.000000
RightFoot 31.152250 -16.986913 20.059910
RightToeBase 8.657609 -0.000000 -0.000000
635
root 0.690588 34.028272 -1.250035 100.618494 3.485166 -31.375202
Spine -36.272040 -3.156594 14.554510
Head -51.082653 30.794189 18.252030
LeftShoulder -16.288734 2.283035 46.402874
LeftArm 48.733569 -48.260028 -17.703410
LeftForeArm 16.212855 -0.000000 16.845992
LeftHand -28.590218 -0.000000 0.039500
LeftHandThumb1 -26.253704 0.000000 33.147579
RightShoulder -27.212870 1.754484 -31.239993
RightArm -30.725244 -21.921425 52.033407
RightForeArm -44.385949 -0.000000 11.644431
RightHand -1.705553 -0.000000 22.911750
RightHandThumb1 -24.326973 -0.000000 -32.862282
LeftUpLeg -98.489855 25.854671 -1.191924
LeftLeg -10.519369 -0.000000 0.000000
LeftFoot -0.214298 11.402957 -7.113231
LeftToeBase 5.260831 -0.000000 -0.000000
RightUpLeg 18.666576 19.474504 -30.194206
RightLeg 99.729650 -0.000000 -0.000000
RightFoot 30.980630 -17.075742 19.856028
RightToeBase 8.854383 -0.000000 -0.000000
636
root 0.692457 34.027852 -1.260446 100.786926 3.505035 -31.427916
Spine -36.345946 -3.135215 14.597658
Head -51.173070 30.800179 18.324421
LeftShoulder -16.279990 2.202087 46.438655
LeftArm 48.811907 -48.377626 -17.799979
LeftForeArm 16.208257 0.000000 16.919236
LeftHand -28.769442 -0.000000 -0.062288
LeftHandThumb1 -26.253704 0.000000 33.147579
RightShoulder -27.199715 1.726608 -31.275325
RightArm -30.704231 -21.960181 52.034310
RightForeArm -44.655253 -0.000000 11.764855
RightHand -1.813194 -0.000000 23.242543
RightHandThumb1 -24.326973 -0.000000 -32.862282
LeftUpLeg -98.585877 25.952792 -1.086935
LeftLeg -10.591849 -0.000000 0.000000
LeftFoot -0.186525 11.515106 -7.150189
LeftToeBase 5.264630 -0.000000 -0.000000
RightUpLeg 18.656375 19.521643 -30.142383
RightLeg 99.691894 -0.000000 -0.000000
RightFoot 30.906291 -17.179143 19.873164
RightToeBase 8.682006 -0.000000 -0.000000
637
root 0.692163 34.030429 -1.271743 100.955438 3.546289 -31.495653
Spine -36.404997 -3.095573 14.650972
Head -51.328084 30.805919 18.346923
LeftShoulder -16.297974 2.116945 46.479655
LeftArm 48.796861 -48.424773 -17.762468
LeftForeArm 16.191153 -0.000000 16.938694
LeftHand -28.748414 0.000000 -0.244369
LeftHandThumb1 -26.253704 0.000000 33.147579
RightShoulder -27.174084 1.727355 -31.333894
RightArm -30.708470 -21.999916 52.080983
RightForeArm -44.695025 -0.000000 11.750018
RightHand -1.737947 -0.000000 23.063874
RightHandThumb1 -24.326973 -0.000000 -32.862282
LeftUpLeg -98.744573 26.062840 -1.041777
LeftLeg -10.617376 -0.000000 0.000000
LeftFoot -0.162207 11.547876 -7.191647
LeftToeBase 5.319467 -0.000000 -0.000000
RightUpLeg 18.619405 19.543224 -30.087294
RightLeg 99.706939 -0.000000 -0.000000
RightFoot 30.814208 -17.210285 19.662111
RightToeBase 8.889806 -0.000000 -0.000000
